<svg width="234" height="234" viewBox="0 0 234 234" fill="none" xmlns="http://www.w3.org/2000/svg">
<path d="M116.773 0C132.353 0 140.143 -0.000226125 146.682 0.866211C191.488 6.80327 226.743 42.0576 232.68 86.8643C233.546 93.4034 233.546 101.194 233.546 116.773C233.546 132.353 233.546 140.143 232.68 146.682C226.743 191.488 191.488 226.743 146.682 232.68C140.143 233.546 132.353 233.546 116.773 233.546H0V0H116.773ZM115.35 75.7285C104.341 75.7285 98.8353 75.7289 95.415 79.1484C91.9949 82.5686 91.9951 88.0739 91.9951 99.083V141.413H49.665C38.6561 141.413 33.1507 141.413 29.7305 144.833C26.3104 148.253 26.3105 153.758 26.3105 164.768V183.743C26.3105 194.752 26.3104 200.258 29.7305 203.678C33.1507 207.098 38.6556 207.098 49.665 207.098H68.6416C79.6508 207.098 85.156 207.098 88.5762 203.678C91.9959 200.257 91.9961 194.752 91.9961 183.743V141.413H134.325C145.334 141.413 150.84 141.413 154.26 137.993C157.68 134.573 157.681 129.068 157.681 118.059V99.083C157.681 88.0739 157.68 82.5686 154.26 79.1484C150.84 75.7287 145.335 75.7285 134.326 75.7285H115.35Z" fill="url(#paint0_linear_1_38260)"/>
<defs>
<linearGradient id="paint0_linear_1_38260" x1="-0.500011" y1="233.546" x2="204.652" y2="28.3935" gradientUnits="userSpaceOnUse">
<stop stop-color="#3EE8A7"/>
<stop offset="1" stop-color="#23B47D"/>
</linearGradient>
</defs>
</svg>
